<?xml version="1.0" standalone="no"?>
<!DOCTYPE svg PUBLIC "-//W3C//DTD SVG 20010904//EN"
 "http://www.w3.org/TR/2001/REC-SVG-20010904/DTD/svg10.dtd">
<svg version="1.0" xmlns="http://www.w3.org/2000/svg"
 width="450.000000pt" height="450.000000pt" viewBox="0 0 450.000000 450.000000"
 preserveAspectRatio="xMidYMid meet">
<metadata>
Created by potrace 1.10, written by Peter Selinger 2001-2011
</metadata>
<g transform="translate(0.000000,450.000000) scale(0.100000,-0.100000)"
fill="#000000" stroke="none">
<path d="M2330 3906 c-25 -12 -52 -26 -60 -31 -8 -5 -19 -10 -25 -11 -34 -7
-197 -69 -234 -90 -53 -29 -63 -30 -86 -4 -23 25 -60 26 -77 2 -7 -10 -26 -27
-43 -38 -33 -21 -59 -41 -84 -64 -9 -8 -37 -28 -61 -44 -67 -44 -172 -131
-200 -166 -14 -17 -35 -42 -47 -55 -12 -13 -28 -34 -37 -47 -26 -36 -27 -16
-5 68 39 151 35 244 -11 244 -19 0 -47 -27 -52 -50 -2 -8 -5 -17 -8 -20 -3 -3
-15 -27 -28 -53 -33 -71 -111 -186 -134 -198 -11 -6 -18 -7 -14 -1 3 5 -3 17
-14 27 -20 18 -21 17 -46 -6 -58 -53 -101 -191 -131 -417 -8 -62 39 -268 71
-311 9 -12 8 -13 -4 -6 -58 35 -93 64 -146 123 -60 65 -62 66 -88 53 -20 -11
-26 -22 -26 -47 0 -18 5 -36 10 -39 6 -4 8 -10 5 -14 -2 -5 18 -46 47 -92 42
-69 50 -92 49 -126 -1 -24 3 -43 8 -43 5 0 14 -13 21 -29 6 -16 18 -32 26 -35
8 -3 14 -11 14 -19 0 -7 14 -26 30 -42 16 -16 30 -32 30 -35 0 -4 -22 -21 -49
-38 -47 -31 -60 -47 -68 -85 -2 -14 7 -10 39 17 50 44 133 76 193 76 35 0 45
4 45 16 0 14 -7 16 -40 11 -50 -6 -87 20 -170 122 -54 66 -69 91 -55 91 2 0
42 -39 89 -87 90 -94 129 -110 50 -22 -121 137 -269 378 -246 401 6 6 21 -7
42 -39 38 -56 80 -96 133 -124 37 -19 49 -39 23 -39 -7 0 -35 12 -62 26 l-49
26 35 -37 c38 -40 84 -67 152 -89 109 -35 123 -30 71 27 -48 53 -108 184 -127
277 -18 85 -21 176 -6 185 6 3 10 25 10 48 1 57 21 145 52 227 13 36 51 90 62
90 12 0 6 -28 -9 -40 -8 -6 -26 -48 -40 -92 -29 -95 -36 -244 -11 -254 8 -3
17 -12 20 -20 4 -11 2 -12 -14 -4 -10 5 -22 10 -25 10 -14 0 7 -115 27 -155
53 -103 71 -107 52 -13 -24 112 -13 343 17 372 5 6 9 18 9 29 0 26 54 131 104
201 52 73 88 144 107 209 7 26 18 47 23 47 25 0 -24 -224 -94 -426 -22 -64
-40 -125 -40 -135 0 -11 -7 -19 -16 -19 -17 0 -14 41 12 159 13 56 13 83 0 70
-2 -2 -16 -56 -30 -120 -18 -82 -26 -144 -26 -210 1 -84 4 -100 30 -149 31
-61 35 -58 44 36 14 151 85 342 182 489 48 74 176 193 278 261 50 32 113 80
142 106 56 52 64 56 64 33 0 -17 -81 -101 -148 -153 -31 -25 -42 -29 -42 -17
0 36 -140 -87 -209 -184 -58 -82 -31 -73 77 28 146 136 239 202 417 297 55 29
121 58 146 63 52 12 153 56 218 97 26 16 42 21 39 13 -8 -25 -112 -102 -249
-184 -152 -92 -149 -90 -149 -76 0 6 29 32 65 58 69 52 85 74 33 47 -147 -75
-337 -241 -452 -396 -61 -82 -138 -216 -134 -230 2 -5 31 26 66 69 77 97 147
170 237 249 93 81 250 186 271 182 13 -2 5 -11 -27 -32 -97 -65 -307 -311
-284 -334 2 -3 35 24 72 59 149 140 311 253 433 302 185 75 368 105 695 117
116 4 257 15 314 24 114 19 155 17 106 -3 -51 -22 -202 -50 -385 -71 -110 -13
-199 -30 -242 -44 -37 -13 -68 -20 -68 -15 0 14 61 48 97 55 18 3 31 10 28 14
-5 8 -56 -1 -114 -19 -58 -18 -231 -143 -231 -167 0 -11 10 -9 48 10 73 37
254 95 362 116 30 5 123 21 205 34 83 14 200 34 260 46 61 11 148 27 195 36
47 8 94 17 105 19 12 3 49 22 83 44 96 62 77 79 -28 26 -29 -15 -97 -35 -152
-46 -89 -17 -102 -18 -128 -4 -36 19 -98 19 -220 0 -52 -8 -152 -15 -222 -15
-117 0 -443 -31 -482 -46 -9 -3 -23 -4 -31 0 -12 4 -10 10 10 30 30 30 32 57
7 79 -24 22 -31 22 -75 -8 -41 -29 -46 -21 -18 26 37 61 -5 89 -79 55z m160
-103 c-1 -28 -148 -129 -230 -159 -30 -11 -88 -42 -127 -68 -40 -26 -81 -46
-90 -44 -14 3 -8 10 22 30 22 14 59 46 83 71 30 33 57 51 90 61 63 18 192 82
217 107 24 24 35 24 35 2z m-1460 -1218 c10 -12 10 -15 -3 -15 -8 0 -17 7 -21
15 -3 8 -2 15 3 15 5 0 14 -7 21 -15z"/>
<path d="M3745 3774 c-44 -37 -110 -93 -147 -125 -47 -40 -115 -81 -228 -138
-89 -44 -181 -93 -204 -109 -24 -16 -73 -46 -110 -67 -36 -20 -68 -41 -72 -46
-6 -11 -34 -12 -34 -1 0 4 51 47 114 97 63 49 113 92 110 96 -8 14 -152 -82
-223 -147 -65 -60 -146 -163 -136 -173 3 -2 18 2 35 9 17 7 33 10 37 6 3 -3 4
-7 2 -8 -2 -2 -33 -18 -69 -36 -71 -36 -128 -78 -118 -87 3 -4 17 0 30 9 25
16 183 56 223 56 38 0 29 -17 -12 -24 -50 -9 -93 -26 -93 -38 0 -5 7 -5 18 0
34 19 121 24 196 11 42 -6 76 -15 76 -18 0 -3 -66 -6 -148 -7 -111 -1 -156 -5
-184 -17 -21 -9 -38 -18 -38 -21 0 -3 29 -5 64 -5 66 1 106 -7 106 -19 0 -4
-46 -8 -103 -8 -83 -2 -120 -7 -185 -29 -85 -28 -98 -45 -33 -45 31 0 121 -28
294 -92 46 -17 33 -32 -20 -23 -64 11 -232 15 -238 6 -2 -5 24 -16 58 -25 63
-18 227 -104 227 -120 0 -5 -15 -5 -32 -1 -49 10 -182 35 -193 35 -5 0 11 -21
37 -47 25 -27 71 -90 103 -140 53 -87 75 -111 75 -80 0 17 -33 86 -70 144 -16
25 -27 50 -24 55 3 5 26 6 50 2 35 -5 49 -3 64 11 11 10 20 22 20 26 0 5 -19
26 -42 49 -27 26 -36 40 -26 40 9 0 26 8 38 18 18 14 21 25 17 44 -7 28 -20
35 -182 104 l-40 17 50 8 c28 4 68 8 91 8 26 1 50 8 64 21 13 11 20 20 16 20
-4 0 -2 9 5 21 10 19 16 20 88 14 65 -6 80 -4 94 10 10 9 17 22 17 29 0 17
-48 42 -95 51 -22 4 -46 12 -53 18 -7 6 -34 16 -60 22 -31 8 -47 18 -47 28 0
9 -4 19 -8 23 -23 23 23 79 58 70 20 -5 73 18 180 79 28 16 52 32 55 35 11 14
212 111 222 108 6 -2 -15 -23 -46 -47 -37 -29 -56 -51 -56 -65 0 -11 4 -16 8
-11 4 6 33 26 66 45 32 19 91 70 132 113 74 79 97 86 48 15 -36 -51 -148 -146
-196 -165 -37 -15 -48 -28 -29 -35 22 -8 -20 -39 -119 -89 -19 -9 -46 -29 -60
-44 l-25 -27 28 -24 c20 -17 40 -24 72 -24 39 0 53 7 122 62 86 69 203 182
203 198 0 5 4 10 9 10 15 0 20 39 8 69 -9 24 -8 32 6 46 28 27 39 55 33 80 -5
19 5 31 52 71 76 64 172 161 172 174 0 19 -15 10 -95 -56z m-175 -330 c0 -17
-50 -71 -119 -132 -188 -162 -174 -153 -238 -150 l-58 3 58 27 c93 44 217 130
282 196 56 56 75 71 75 56z"/>
<path d="M3475 3019 c-75 -10 -175 -39 -175 -51 0 -4 -3 -7 -7 -6 -11 4 -103
-36 -103 -44 0 -3 -15 -11 -34 -18 -46 -15 -80 -53 -71 -79 5 -18 54 -53 70
-50 3 0 18 -2 34 -6 29 -6 57 4 96 36 22 19 163 90 210 107 55 20 135 32 209
32 56 0 79 4 96 18 l22 18 -30 26 c-29 24 -37 26 -144 26 -62 0 -140 -4 -173
-9z m316 -36 c20 -20 8 -22 -45 -11 -33 7 -77 7 -144 -1 -86 -10 -111 -18
-217 -70 -66 -32 -131 -70 -144 -84 -13 -15 -29 -23 -35 -20 -5 4 -33 12 -61
18 l-50 12 110 55 c127 64 179 82 290 102 95 18 278 17 296 -1z"/>
<path d="M1985 2963 c-66 -14 -164 -61 -213 -101 -55 -45 -64 -35 -17 17 24
26 32 41 23 41 -23 0 -104 -92 -118 -134 -6 -20 -17 -35 -23 -33 -7 3 -10 11
-8 18 2 8 6 23 9 34 5 17 3 18 -10 7 -21 -17 -38 -88 -38 -156 l0 -56 37 41
c41 45 119 89 158 89 14 0 25 5 25 10 0 6 -16 10 -35 10 -19 0 -35 4 -35 10 0
11 64 30 102 30 15 0 30 5 33 10 4 6 -8 10 -29 10 -20 0 -36 4 -36 9 0 16 61
31 127 31 45 0 62 3 57 11 -4 8 -27 9 -67 4 -54 -6 -59 -5 -48 9 14 17 131 76
150 76 7 0 9 5 6 10 -6 10 -15 11 -50 3z"/>
<path d="M3267 2762 c-41 -45 -6 -75 109 -92 135 -20 169 -23 159 -13 -15 16
-143 52 -207 59 -60 7 -75 19 -35 29 29 8 102 -9 179 -40 73 -30 87 -31 65 -7
-31 34 -127 74 -190 79 -53 5 -65 2 -80 -15z"/>
<path d="M2370 2728 c0 -8 9 -23 21 -34 42 -37 117 -140 161 -219 25 -44 61
-109 82 -143 38 -67 43 -82 26 -82 -9 0 -55 46 -85 86 -14 18 -14 17 -15 -8 0
-16 -3 -28 -7 -27 -8 0 -94 115 -145 193 -21 31 -28 36 -28 21 0 -43 335 -611
413 -698 16 -18 26 -26 22 -19 -10 19 6 14 51 -16 43 -28 138 -139 211 -246
23 -33 47 -66 52 -73 19 -21 -97 -81 -118 -60 -18 18 -20 6 -11 -73 5 -41 5
-78 2 -82 -4 -3 -19 -4 -33 -1 -26 5 -27 8 -34 95 -6 78 -11 96 -36 131 -16
22 -29 47 -29 57 0 9 -25 42 -56 74 -53 54 -99 135 -107 184 -2 13 -30 46 -63
75 -72 63 -230 230 -373 394 -105 121 -138 145 -84 61 47 -73 207 -273 263
-328 42 -41 110 -121 110 -129 0 -22 -20 -8 -121 82 -170 152 -323 311 -401
416 -16 23 -34 41 -39 41 -9 0 4 -33 60 -150 63 -129 233 -338 319 -392 22
-13 30 -23 22 -28 -8 -5 -2 -14 17 -28 50 -37 17 -34 -53 4 -76 42 -293 200
-393 288 -70 61 -102 75 -55 24 161 -177 260 -260 394 -329 73 -37 115 -69 92
-69 -22 0 -124 53 -203 106 l-84 56 68 -66 c65 -64 79 -86 55 -86 -15 0 -148
137 -148 153 0 6 -55 69 -123 140 -104 108 -126 127 -152 127 -33 0 -122 -52
-131 -75 -4 -11 -22 -15 -58 -15 -29 0 -78 -5 -109 -11 -55 -11 -58 -11 -93
17 -64 51 -72 55 -105 56 -25 1 -39 -6 -59 -31 -23 -26 -29 -29 -39 -17 -6 7
-37 17 -67 21 -67 8 -89 -7 -99 -66 -4 -21 -11 -39 -17 -39 -7 0 -8 16 -4 43
7 44 51 97 81 97 8 0 15 8 14 18 0 10 -3 12 -6 5 -2 -7 -20 -13 -39 -13 -46 0
-93 -21 -124 -55 l-25 -28 33 6 c32 6 32 6 32 -32 0 -25 7 -44 20 -56 19 -17
21 -17 40 0 10 9 24 33 31 52 11 34 11 34 57 27 26 -4 54 -10 63 -15 10 -5 32
0 62 16 52 28 61 27 135 -23 l53 -36 70 12 c38 7 84 12 103 12 32 0 98 36 122
66 14 18 54 24 79 11 53 -26 83 -78 53 -90 -7 -2 -47 -5 -88 -6 -41 -1 -88 -4
-105 -6 -16 -2 -109 -9 -205 -15 -191 -12 -244 -23 -266 -54 -18 -26 -18 -78
0 -142 7 -27 19 -76 26 -109 7 -33 17 -76 22 -95 14 -47 67 -140 80 -140 6 0
8 -13 4 -36 -6 -29 4 -64 53 -192 81 -215 97 -249 125 -277 62 -61 206 -4 349
140 l47 47 88 4 c119 7 143 0 191 -47 23 -23 41 -37 41 -33 0 5 4 4 8 -1 4 -6
22 -21 40 -34 17 -12 32 -26 32 -31 0 -5 -46 -24 -102 -41 -103 -31 -137 -51
-142 -83 -3 -20 -4 -20 -39 -7 -16 6 -41 11 -56 11 -44 0 -243 -60 -270 -81
-13 -11 -31 -17 -40 -14 -9 3 -48 -4 -86 -16 -39 -11 -104 -29 -145 -40 -70
-17 -100 -37 -100 -64 0 -6 13 -58 29 -116 38 -133 76 -219 97 -219 9 0 25
-11 36 -25 11 -14 28 -25 38 -25 18 0 90 77 90 96 0 6 -9 27 -20 49 -34 66
-28 81 34 99 30 9 58 21 61 26 19 31 55 -18 55 -75 0 -27 34 -59 82 -76 33
-11 40 -11 57 5 21 19 33 68 32 136 l0 45 20 -24 c10 -13 22 -41 25 -61 7 -46
38 -100 57 -100 15 0 57 36 57 49 0 5 -7 27 -15 50 -15 43 -8 55 12 22 7 -11
29 -25 50 -32 21 -7 51 -21 66 -33 l28 -20 22 24 c29 31 29 31 11 82 -18 51
-10 61 60 80 38 10 50 10 53 1 9 -26 45 -63 62 -63 9 0 30 14 47 31 17 18 36
28 46 26 10 -3 28 3 41 13 13 11 33 17 43 14 27 -7 74 31 69 56 -5 28 4 25 15
-5 5 -14 21 -31 36 -37 38 -18 59 0 60 51 1 49 7 57 24 36 7 -8 20 -15 30 -15
23 0 52 34 48 56 -2 14 9 20 59 30 100 21 247 74 265 96 12 13 16 29 12 47 -6
28 -62 83 -76 75 -17 -11 -7 22 16 51 l23 29 43 -39 c48 -46 80 -102 80 -142
0 -28 37 -73 59 -73 17 0 51 42 51 64 0 11 10 30 22 43 17 18 22 37 23 86 1
34 12 101 26 149 23 86 23 87 4 108 -16 17 -27 21 -55 16 -52 -8 -100 -35
-112 -61 -10 -23 -11 -23 -45 -7 -32 15 -37 15 -81 -2 -26 -9 -65 -21 -87 -26
-22 -5 -67 -18 -100 -28 -82 -27 -171 -52 -184 -52 -7 0 -11 25 -11 65 0 59 2
67 23 74 18 8 28 3 54 -25 62 -66 118 -39 125 61 3 44 6 52 32 62 34 16 42 12
49 -26 11 -54 85 -72 115 -29 10 14 21 18 41 13 21 -4 32 0 51 20 23 25 24 27
14 128 -8 81 -15 109 -35 137 -97 140 -186 243 -200 234 -5 -3 -9 0 -9 5 0 6
-5 11 -11 11 -7 0 -28 10 -48 22 -48 30 -76 33 -100 9 -27 -27 -43 -59 -36
-71 10 -16 -7 -12 -59 15 -27 14 -46 25 -41 25 5 0 0 10 -11 23 -28 31 -95
148 -92 159 3 7 49 -17 135 -72 18 -12 26 -12 46 -1 20 11 32 11 63 1 53 -17
112 -48 153 -78 21 -17 44 -25 63 -24 31 3 41 -4 76 -55 23 -32 80 -79 87 -71
10 9 -116 162 -223 270 -64 65 -113 120 -109 124 11 11 147 -106 200 -172 43
-53 92 -121 139 -192 l17 -25 -3 29 c-1 16 -19 56 -39 89 -41 66 -42 72 -22
98 14 20 5 59 -20 82 -12 12 -45 62 -45 70 0 8 46 -3 105 -25 72 -27 95 -32
95 -23 0 13 -68 55 -118 73 -26 9 -54 20 -62 23 -8 3 -27 8 -42 11 -19 4 -30
16 -37 39 -7 19 -25 47 -42 63 l-31 29 5 -32 c4 -24 1 -33 -9 -33 -8 0 -14 4
-14 8 0 10 -65 42 -85 42 -17 0 -45 -27 -45 -44 0 -7 13 -26 30 -42 33 -33 37
-46 15 -64 -8 -7 -15 -21 -15 -31 0 -11 -2 -19 -5 -19 -2 0 -44 20 -92 44 -89
45 -103 49 -137 47 -25 -1 27 -37 125 -85 164 -79 315 -182 307 -207 -2 -6
-24 6 -48 26 -46 39 -107 72 -190 105 -27 11 -78 40 -112 65 -35 25 -74 53
-87 62 -13 9 -44 24 -70 33 -54 18 -85 38 -94 62 -8 23 8 32 25 15 71 -71 131
-13 82 81 -20 40 -17 49 9 24 29 -28 52 -28 71 0 13 19 13 25 0 57 -9 20 -18
42 -21 49 -12 29 25 8 83 -48 42 -40 68 -58 78 -54 18 7 22 24 5 24 -6 0 -30
21 -53 48 -88 101 -266 245 -274 221 -2 -5 14 -29 35 -53 36 -41 133 -213 133
-236 0 -23 -18 -6 -58 55 -59 89 -125 162 -207 232 -106 89 -105 88 -105 71z
m640 -479 c19 -12 86 -73 147 -138 102 -105 129 -141 105 -141 -5 0 -63 56
-130 125 -66 69 -132 130 -146 136 -14 7 -26 18 -26 26 0 18 9 16 50 -8z
m-303 -133 c53 -27 105 -62 132 -90 58 -59 47 -70 -13 -14 -26 23 -68 50 -94
61 -78 31 -136 61 -140 75 -7 22 25 13 115 -32z m-381 -125 c16 -13 47 -40 69
-60 118 -105 134 -113 175 -91 22 12 74 -14 89 -45 34 -71 63 -143 65 -160 2
-17 -3 -20 -33 -20 -20 1 -59 13 -88 28 -29 15 -63 27 -75 27 -35 -1 -68 -35
-75 -75 -4 -26 -13 -40 -35 -51 -16 -8 -34 -25 -39 -38 -8 -16 -17 -22 -30
-19 -11 3 -26 0 -34 -7 -25 -21 -27 -5 -4 24 25 32 21 67 -15 123 -27 43 -40
89 -28 97 5 3 30 -1 57 -9 67 -21 80 -19 96 13 8 15 20 33 26 40 23 24 -10 75
-116 181 -56 56 -99 107 -95 112 4 7 17 0 33 -18 15 -15 40 -39 57 -52z m-362
-34 c8 -32 141 -172 220 -232 36 -27 66 -53 66 -57 0 -12 -28 -10 -35 2 -3 6
-18 10 -33 10 l-27 0 30 -25 c17 -14 42 -28 56 -31 25 -6 49 -48 49 -86 0 -26
-107 -70 -230 -95 -160 -32 -299 -43 -425 -33 -114 9 -237 34 -261 51 -20 16
-61 114 -78 189 -10 41 -24 101 -32 132 -17 70 -18 120 -2 136 8 8 48 12 112
12 93 0 327 19 486 39 36 4 72 9 81 9 10 1 19 -8 23 -21z m1056 -107 c21 -16
46 -30 57 -30 24 0 61 -39 152 -163 l73 -98 7 -97 c8 -95 3 -121 -18 -108 -7
4 -11 43 -11 97 l0 90 -29 -20 c-16 -12 -34 -21 -40 -21 -16 0 -13 -17 4 -24
11 -4 15 -22 15 -75 0 -63 -2 -69 -22 -75 -44 -11 -46 -8 -53 72 -4 42 -11 79
-14 82 -16 12 -40 60 -31 60 5 0 10 -4 10 -10 0 -5 5 -10 10 -10 15 0 12 28
-3 37 -7 4 -18 27 -25 50 -7 22 -26 56 -42 73 -17 18 -30 37 -30 42 0 21 -40
75 -65 88 -29 16 -31 27 -8 52 21 23 18 23 63 -12z m-440 -238 c14 -9 45 -26
70 -39 25 -12 58 -33 74 -46 l28 -25 -31 -23 c-17 -12 -31 -26 -31 -30 0 -6
53 -29 66 -29 2 0 4 16 4 35 0 24 5 35 15 35 8 0 15 -4 15 -8 0 -5 22 -37 50
-73 27 -35 50 -69 50 -75 0 -7 -22 -20 -50 -30 l-49 -18 3 -100 c2 -59 -1
-107 -7 -117 -8 -12 -6 -32 7 -75 10 -33 23 -75 28 -94 9 -30 35 -102 55 -147
3 -8 -2 -13 -11 -13 -10 0 -16 9 -16 25 0 21 -5 25 -29 25 -39 0 -80 -33 -64
-51 6 -8 14 -31 18 -51 6 -31 4 -38 -8 -38 -12 0 -18 15 -23 61 -4 33 -12 65
-18 70 -41 34 -139 100 -142 96 -3 -2 2 -10 11 -17 8 -7 15 -20 15 -30 0 -9
11 -44 25 -78 30 -74 32 -105 8 -100 -14 3 -18 13 -17 41 1 36 0 37 -33 37
-41 0 -50 -18 -29 -59 20 -38 20 -41 -4 -41 -16 0 -20 7 -20 34 0 18 -18 90
-40 159 -45 140 -62 162 -168 216 -71 36 -134 101 -161 164 -24 56 -24 57 -11
57 6 0 18 -16 27 -35 9 -19 23 -35 30 -35 19 0 17 7 -18 50 -29 36 -34 70 -10
70 16 0 71 -51 71 -66 0 -8 5 -14 10 -14 19 0 10 22 -21 51 -35 32 -35 41 -1
33 12 -4 35 -28 52 -54 17 -27 38 -51 46 -54 18 -7 13 4 -28 55 -15 20 -28 40
-28 43 0 15 31 3 60 -24 25 -23 31 -36 26 -54 -4 -17 -1 -26 12 -31 22 -9 70
-17 105 -19 15 0 27 -5 27 -10 0 -5 7 -18 17 -28 15 -17 15 -20 -3 -54 -10
-20 -31 -46 -46 -59 l-26 -22 24 -14 c21 -11 29 -10 52 3 27 15 28 15 105 -43
43 -33 79 -59 81 -59 6 0 -35 115 -45 124 -16 17 -10 26 17 26 14 0 39 7 54
17 l28 16 -32 31 c-30 28 -33 38 -39 106 -5 77 -12 95 -61 167 -15 23 -25 47
-21 52 3 6 2 11 -4 11 -6 0 -38 21 -71 48 -53 42 -60 51 -60 84 0 57 8 71 39
63 14 -3 37 -14 51 -23z m177 -56 c24 -37 20 -56 -6 -31 -9 9 -25 22 -35 29
-11 7 -16 18 -12 24 12 20 30 13 53 -22z m73 -47 c0 -7 -6 -4 -15 7 -19 25
-19 40 0 20 8 -8 15 -20 15 -27z m-335 -18 c0 -8 -13 -15 -30 -17 -40 -5 -65
4 -65 22 0 12 11 14 48 12 32 -2 47 -7 47 -17z m-222 -46 c-3 -8 -14 -15 -25
-15 -11 0 -18 5 -15 13 2 6 10 11 16 10 6 -2 11 2 11 8 0 5 4 8 10 4 5 -3 7
-12 3 -20z m73 -19 c-11 -6 -36 -26 -57 -44 -24 -21 -40 -29 -44 -22 -4 6 -5
13 -4 14 86 75 103 86 113 76 8 -9 6 -15 -8 -24z m217 -4 c29 -30 27 -42 -8
-42 -12 0 -31 -9 -43 -20 -12 -11 -25 -19 -29 -18 -4 1 -18 -3 -31 -10 -31
-18 -132 -4 -132 18 0 4 19 26 42 49 30 31 47 41 63 37 11 -3 34 -1 50 3 48
15 60 12 88 -17z m-1116 -37 c31 -8 72 -15 90 -15 41 0 41 -9 3 -43 -16 -15
-30 -33 -30 -39 0 -7 17 5 38 25 36 35 41 37 85 31 26 -4 50 -11 53 -16 3 -4
21 -15 40 -23 41 -17 43 -30 7 -48 -43 -22 -92 -27 -158 -18 -73 11 -94 -2
-39 -25 53 -22 178 -22 203 0 19 17 51 22 51 7 0 -5 -13 -14 -30 -20 -16 -5
-30 -15 -30 -20 0 -6 2 -11 3 -11 11 0 67 33 77 45 19 23 56 18 79 -11 12 -15
21 -32 21 -38 0 -7 -21 -32 -47 -58 -87 -83 -152 -127 -220 -148 -36 -11 -67
-20 -69 -20 -10 0 -58 100 -97 205 -25 66 -57 146 -71 179 -25 57 -31 76 -21
76 2 0 30 -7 62 -15z m783 2 c0 -14 -20 -37 -32 -37 -12 0 -10 24 4 38 16 16
28 15 28 -1z m-47 -29 c12 -46 -15 -52 -38 -8 -15 29 -15 30 9 30 16 0 26 -7
29 -22z m-111 -25 c5 -18 22 -43 38 -55 17 -12 30 -30 30 -40 0 -10 7 -30 16
-43 l16 -25 -91 -2 c-50 -1 -101 -2 -113 -2 -17 -1 -24 5 -26 24 -2 14 -17 37
-34 52 -26 23 -29 30 -18 43 11 13 9 15 -14 15 -15 0 -37 5 -49 11 -21 10 -21
10 -3 -5 11 -9 24 -16 30 -16 6 0 6 -4 -1 -11 -9 -9 -24 -4 -59 18 -26 16 -49
33 -51 38 -2 6 37 9 99 7 70 -2 117 2 148 12 61 19 72 16 82 -21z m56 10 c14
-31 16 -53 4 -53 -10 0 -52 56 -52 70 0 21 36 9 48 -17z m452 -17 c0 -14 10
-42 23 -63 17 -29 22 -54 23 -105 1 -81 -9 -86 -58 -25 -30 35 -36 53 -42 111
-6 57 -4 72 10 87 24 26 44 24 44 -5z m-86 -28 c11 -35 15 -78 7 -78 -12 0
-51 76 -44 84 11 10 33 6 37 -6z m-70 -33 c20 -30 21 -65 2 -65 -19 0 -35 22
-42 58 -8 40 16 44 40 7z m1076 12 c0 -1 -11 -36 -25 -77 -13 -41 -25 -84 -25
-95 0 -12 -6 -27 -12 -33 -10 -10 -10 -17 0 -32 6 -11 12 -31 12 -44 0 -19 -6
-25 -26 -28 -37 -4 -55 -35 -31 -52 21 -16 22 -32 3 -39 -18 -7 -37 14 -34 39
1 11 -2 38 -6 61 -7 36 -20 52 -97 120 -49 43 -89 81 -89 84 0 3 25 11 56 18
l56 13 42 -41 c45 -44 63 -53 46 -22 -7 13 -7 22 0 26 5 3 10 22 10 41 0 29 4
34 23 34 12 0 33 7 47 14 23 13 50 20 50 13z m-340 -167 c0 -12 -91 -143 -108
-156 -32 -24 -6 -23 61 1 84 31 87 31 87 1 0 -14 5 -28 10 -31 14 -9 12 -28
-2 -22 -7 2 -28 -2 -47 -9 -18 -8 -42 -14 -52 -14 -10 0 -33 -6 -51 -14 -56
-24 -140 -46 -150 -40 -29 18 -24 48 20 113 24 36 53 76 65 88 11 13 18 25 15
28 -3 3 -38 -6 -77 -21 -39 -15 -73 -25 -75 -23 -2 2 -6 19 -8 38 l-3 34 85
24 c47 14 107 31 134 38 27 8 54 19 59 24 8 8 15 1 24 -20 7 -17 13 -35 13
-39z m-470 -16 c0 -8 -14 -28 -31 -45 -29 -28 -34 -29 -60 -19 -36 15 -38 30
-2 28 19 -2 33 6 52 29 25 32 41 34 41 7z m200 -133 c0 -27 -26 -46 -34 -25
-11 29 -6 44 14 44 13 0 20 -7 20 -19z m-480 -45 c0 -30 -4 -35 -42 -49 -24
-9 -64 -22 -90 -29 -27 -7 -48 -18 -48 -25 0 -17 14 -16 88 7 86 27 92 26 92
-13 0 -32 -1 -33 -71 -52 -39 -11 -72 -22 -74 -25 -2 -3 3 -16 11 -30 10 -18
13 -20 14 -8 0 12 14 21 43 28 23 6 59 18 80 26 40 15 57 12 57 -10 0 -8 9
-33 20 -57 24 -53 25 -69 5 -69 -10 0 -15 10 -15 28 0 35 -14 56 -33 49 -16
-6 -14 -45 5 -84 6 -13 9 -26 5 -29 -13 -13 -26 8 -33 52 -4 32 -10 44 -20 40
-7 -3 -51 -15 -96 -27 -46 -12 -86 -25 -91 -29 -4 -3 4 -38 17 -78 16 -45 21
-74 15 -78 -16 -9 -22 2 -40 74 -19 78 -40 152 -90 320 -3 9 37 27 131 57 74
23 141 43 148 44 7 1 12 -12 12 -33z m-361 -113 c14 -11 24 -34 27 -60 4 -35
1 -44 -18 -58 l-23 -16 35 -29 c20 -17 47 -30 63 -30 18 0 27 -4 24 -12 -2 -7
7 -33 19 -57 13 -24 21 -48 18 -53 -8 -13 -34 11 -34 33 0 23 -21 69 -32 69
-11 0 -10 -28 2 -35 6 -3 10 -17 10 -31 0 -14 -4 -22 -10 -19 -5 3 -10 14 -10
24 0 10 -9 30 -20 43 -14 19 -26 24 -46 20 -36 -7 -38 -19 -14 -87 27 -77 28
-90 10 -90 -9 0 -17 14 -22 35 -17 86 -29 116 -61 148 -31 31 -38 33 -63 25
-35 -12 -35 -33 1 -105 32 -64 31 -71 -4 -30 -32 38 -48 29 -27 -14 8 -16 17
-40 21 -52 6 -20 4 -23 -11 -20 -13 2 -21 15 -25 41 -7 42 -13 52 -28 42 -8
-4 -8 -12 0 -27 8 -14 8 -23 0 -31 -15 -15 -24 -2 -26 41 -1 20 -8 53 -15 72
-26 76 -32 96 -38 125 -3 17 -12 40 -20 53 -8 12 -13 24 -11 26 4 4 191 61
224 69 44 10 84 6 104 -10z m651 -74 c0 -11 -4 -17 -10 -14 -5 3 -10 13 -10
21 0 8 5 14 10 14 6 0 10 -9 10 -21z m-1007 -58 c9 -11 9 -15 0 -18 -19 -7
-16 -73 5 -96 17 -19 16 -19 -14 -13 -21 5 -45 2 -69 -8 -21 -9 -46 -16 -56
-16 -28 0 -24 -25 16 -97 39 -71 42 -83 20 -83 -10 0 -15 10 -15 29 0 32 -16
49 -32 33 -6 -6 -4 -27 6 -61 9 -30 11 -53 5 -56 -11 -8 -17 6 -27 65 -6 36
-12 46 -30 48 -22 3 -23 1 -16 -32 4 -24 2 -36 -5 -36 -6 0 -11 9 -11 20 0 19
-26 109 -66 230 -8 25 -18 53 -21 63 -4 14 1 17 28 17 19 1 86 18 149 38 l115
38 3 -25 c2 -14 9 -32 15 -40z"/>
<path d="M1757 1900 c-77 -20 -82 -23 -73 -45 8 -22 36 -30 58 -16 15 9 20 9
24 -3 8 -22 -4 -36 -32 -36 -34 0 -30 -16 7 -29 21 -7 28 -15 23 -23 -4 -7
-19 -31 -33 -53 -34 -55 -40 -152 -12 -186 16 -19 23 -22 37 -14 28 18 35 50
16 76 -20 29 -42 89 -33 89 12 0 87 74 94 93 9 24 42 18 42 -8 0 -14 -6 -19
-17 -17 -29 5 -20 -15 13 -32 40 -20 129 -88 129 -98 0 -4 -11 -10 -25 -13
-14 -3 -36 -7 -49 -10 -29 -6 -46 14 -22 27 9 5 16 13 16 18 0 8 -85 70 -96
70 -10 0 -3 -29 11 -40 8 -7 15 -19 15 -26 0 -23 -32 -16 -62 13 -40 38 -35
10 9 -49 42 -58 81 -78 153 -78 49 0 130 30 130 48 0 11 -41 46 -62 55 -9 3
-18 18 -20 34 -2 23 -8 29 -33 31 -55 5 -60 10 -36 35 17 19 21 36 21 89 0
118 -42 139 -193 98z m133 -70 c7 -22 11 -43 8 -46 -9 -8 -68 24 -68 37 0 19
21 49 34 49 7 0 19 -18 26 -40z"/>
<path d="M1287 1868 c-6 -22 8 -58 22 -58 5 0 14 7 21 15 10 12 10 21 2 40
-14 31 -38 32 -45 3z"/>
<path d="M1317 1714 c-10 -10 -9 -64 1 -64 5 0 17 6 28 14 15 12 17 19 8 32
-12 20 -27 27 -37 18z"/>
<path d="M1384 1526 c-8 -35 2 -49 27 -36 24 13 25 30 2 31 -11 0 -13 3 -5 6
17 7 15 23 -3 23 -8 0 -17 -11 -21 -24z"/>
<path d="M3010 1795 c0 -15 57 -83 91 -108 35 -26 42 -28 55 -15 12 12 11 18
-11 48 -14 19 -25 40 -25 48 0 25 -25 6 -28 -21 -5 -38 -18 -34 -42 13 -11 22
-25 40 -30 40 -6 0 -10 -2 -10 -5z"/>
<path d="M2524 1547 c30 -26 56 -26 56 0 0 12 -3 13 -14 4 -12 -10 -21 -9 -43
4 l-28 17 29 -25z"/>
<path d="M2750 1351 c0 -11 -4 -22 -10 -26 -5 -3 -6 -13 -3 -22 6 -14 8 -14
20 3 15 21 17 50 3 59 -5 3 -10 -3 -10 -14z"/>
<path d="M2330 1145 c-7 -14 -17 -25 -22 -25 -4 0 -8 -5 -8 -10 0 -11 74 -3
103 12 25 13 21 23 -16 36 -43 16 -41 16 -57 -13z"/>
<path d="M1466 1325 c4 -9 13 -15 21 -13 23 5 20 23 -4 26 -18 3 -21 0 -17
-13z"/>
<path d="M1645 1100 c-9 -15 -1 -23 21 -18 15 3 16 4 1 16 -11 9 -17 10 -22 2z"/>
<path d="M1660 1061 c0 -5 -10 -11 -22 -15 -18 -4 -20 -8 -11 -17 10 -10 17
-9 33 6 22 20 26 35 10 35 -5 0 -10 -4 -10 -9z"/>
<path d="M1895 727 c-29 -9 -41 -19 -43 -35 -4 -26 -2 -26 68 -3 89 29 65 65
-25 38z"/>
<path d="M1630 645 c-20 -7 -55 -16 -78 -20 -33 -5 -42 -11 -42 -27 0 -17 4
-19 23 -13 12 4 44 13 71 21 53 15 71 26 65 42 -3 6 -18 4 -39 -3z"/>
<path d="M3196 2573 c-30 -5 -103 -48 -122 -73 -18 -22 3 -56 45 -74 20 -8 77
-23 126 -32 50 -9 102 -23 117 -30 31 -16 58 -18 58 -5 0 18 -105 59 -208 82
-100 22 -144 40 -130 54 14 14 237 -52 307 -91 24 -13 45 -24 47 -24 14 0 -34
54 -58 66 -17 9 -27 18 -24 21 22 23 312 -14 370 -47 48 -27 82 -32 100 -14
23 22 20 39 -13 66 -69 59 -278 106 -466 106 -66 0 -133 -3 -149 -5z m339 -44
c132 -20 285 -77 285 -106 0 -17 -3 -17 -42 7 -83 48 -222 79 -359 80 -109 0
-149 -8 -149 -29 -1 -14 -2 -14 -14 2 -9 11 -27 17 -54 17 -22 0 -43 4 -47 9
-22 36 194 47 380 20z"/>
<path d="M3112 2323 c-7 -3 6 -19 35 -41 52 -40 59 -44 143 -93 30 -17 76 -49
103 -71 41 -34 47 -37 47 -19 0 12 -4 21 -10 21 -5 0 -10 6 -10 14 0 17 -272
199 -291 195 -2 0 -10 -3 -17 -6z"/>
<path d="M2414 2215 c14 -37 92 -140 195 -257 61 -70 116 -130 122 -134 31
-19 7 15 -93 131 -61 72 -136 163 -166 203 -54 71 -70 87 -58 57z"/>
<path d="M923 2174 c-47 -28 -56 -45 -21 -41 17 1 23 -4 24 -20 1 -13 2 -25 3
-27 0 -2 18 13 39 34 26 26 49 39 80 44 24 3 47 4 53 1 5 -4 9 -2 9 4 0 39
-126 42 -187 5z"/>
<path d="M2070 2125 c0 -3 38 -50 86 -103 81 -93 178 -181 199 -182 5 0 -7 12
-28 27 -36 26 -171 174 -212 233 -17 26 -45 40 -45 25z"/>
<path d="M2735 1779 c10 -32 26 -48 32 -31 3 6 9 10 14 6 23 -14 6 7 -22 27
l-31 22 7 -24z"/>
<path d="M2804 1751 c4 -6 2 -20 -4 -32 -11 -20 -12 -20 -33 -2 l-21 18 20
-26 c10 -15 34 -37 51 -49 29 -20 36 -21 63 -10 57 24 28 92 -43 105 -26 4
-37 3 -33 -4z"/>
</g>
</svg>
